<svg xmlns="http://www.w3.org/2000/svg" viewBox="0 0 512 512">
  <path fill="#00a4dc" d="M256,0C114.6,0,0,114.6,0,256s114.6,256,256,256s256-114.6,256-256S397.4,0,256,0z"/>
  <path fill="#ffffff" d="M384,332.8 c-10.2,0-18.4-8.2-18.4-18.4V197.6c0-10.2,8.2-18.4,18.4-18.4s18.4,8.2,18.4,18.4v116.8C402.4,324.6,394.2,332.8,384,332.8z M320,384c-10.2,0-18.4-8.2-18.4-18.4V146.4c0-10.2,8.2-18.4,18.4-18.4s18.4,8.2,18.4,18.4v219.2C338.4,375.8,330.2,384,320,384z M256,435.2c-10.2,0-18.4-8.2-18.4-18.4V95.2c0-10.2,8.2-18.4,18.4-18.4s18.4,8.2,18.4,18.4v321.6C274.4,427,266.2,435.2,256,435.2 z M192,384c-10.2,0-18.4-8.2-18.4-18.4V146.4c0-10.2,8.2-18.4,18.4-18.4s18.4,8.2,18.4,18.4v219.2C210.4,375.8,202.2,384,192,384z M128,332.8c-10.2,0-18.4-8.2-18.4-18.4V197.6c0-10.2,8.2-18.4,18.4-18.4s18.4,8.2,18.4,18.4v116.8 C146.4,324.6,138.2,332.8,128,332.8z"/>
</svg>
